<svg width="12" height="23" viewBox="0 0 12 23" fill="none" xmlns="http://www.w3.org/2000/svg">
<path d="M11.5629 0.483581L8.78567 0.479004C5.66551 0.479004 3.64912 2.60409 3.64912 5.89323V8.38956H0.856711C0.615414 8.38956 0.420013 8.59051 0.420013 8.83838V12.4553C0.420013 12.7031 0.615636 12.9039 0.856711 12.9039H3.64912V22.0304C3.64912 22.2783 3.84452 22.479 4.08582 22.479H7.72913C7.97043 22.479 8.16583 22.2781 8.16583 22.0304V12.9039H11.4308C11.6721 12.9039 11.8675 12.7031 11.8675 12.4553L11.8688 8.83838C11.8688 8.71936 11.8227 8.60538 11.741 8.52116C11.6592 8.43693 11.5478 8.38956 11.4319 8.38956H8.16583V6.27339C8.16583 5.25628 8.40178 4.73994 9.69159 4.73994L11.5625 4.73925C11.8036 4.73925 11.999 4.5383 11.999 4.29066V0.932173C11.999 0.684761 11.8038 0.484039 11.5629 0.483581Z" fill="white"/>
</svg>
