<svg width="20" height="21" viewBox="0 0 20 21" fill="none" xmlns="http://www.w3.org/2000/svg">
<path fill-rule="evenodd" clip-rule="evenodd" d="M0 10.479C0 6.28763 0 4.19195 1.05041 2.74619C1.38964 2.27926 1.80026 1.86865 2.26718 1.52941C3.71294 0.479004 5.80863 0.479004 10 0.479004C14.1914 0.479004 16.2871 0.479004 17.7328 1.52941C18.1997 1.86865 18.6104 2.27926 18.9496 2.74619C20 4.19195 20 6.28763 20 10.479C20 14.6704 20 16.7661 18.9496 18.2118C18.6104 18.6787 18.1997 19.0894 17.7328 19.4286C16.2871 20.479 14.1914 20.479 10 20.479C5.80863 20.479 3.71294 20.479 2.26718 19.4286C1.80026 19.0894 1.38964 18.6787 1.05041 18.2118C0 16.7661 0 14.6704 0 10.479ZM10 5.18489C7.07632 5.18489 4.70588 7.55533 4.70588 10.479C4.70588 13.4027 7.07632 15.7731 10 15.7731C12.9237 15.7731 15.2941 13.4027 15.2941 10.479C15.2941 7.55533 12.9237 5.18489 10 5.18489ZM10 13.7878C8.17618 13.7878 6.69118 12.3028 6.69118 10.479C6.69118 8.65386 8.17618 7.17018 10 7.17018C11.8238 7.17018 13.3088 8.65386 13.3088 10.479C13.3088 12.3028 11.8238 13.7878 10 13.7878ZM16.3966 4.78784C16.3966 5.17744 16.0808 5.49328 15.6912 5.49328C15.3016 5.49328 14.9857 5.17744 14.9857 4.78784C14.9857 4.39823 15.3016 4.08239 15.6912 4.08239C16.0808 4.08239 16.3966 4.39823 16.3966 4.78784Z" fill="white"/>
</svg>
