<svg width="24" height="17" viewBox="0 0 24 17" fill="none" xmlns="http://www.w3.org/2000/svg">
<path fill-rule="evenodd" clip-rule="evenodd" d="M21.3903 0.593076C22.4182 0.86993 23.2288 1.68035 23.5055 2.70848C24.0197 4.5864 23.9999 8.50081 23.9999 8.50081C23.9999 8.50081 23.9999 12.3953 23.5057 14.2734C23.2288 15.3013 22.4184 16.1119 21.3903 16.3886C19.5122 16.883 12 16.883 12 16.883C12 16.883 4.50731 16.883 2.60961 16.369C1.58148 16.0921 0.771054 15.2815 0.4942 14.2536C0 12.3953 0 8.48104 0 8.48104C0 8.48104 0 4.5864 0.4942 2.70848C0.770871 1.68053 1.60125 0.850155 2.60943 0.573484C4.48753 0.0791016 11.9998 0.0791016 11.9998 0.0791016C11.9998 0.0791016 19.5122 0.0791016 21.3903 0.593076ZM15.8549 8.48107L9.60788 12.0791V4.88304L15.8549 8.48107Z" fill="white"/>
</svg>
